<svg xmlns="http://www.w3.org/2000/svg" xmlns:xlink="http://www.w3.org/1999/xlink" version="1.1" width="1080" height="1080" viewBox="0 0 1080 1080" xml:space="preserve">
<desc>Created with Fabric.js 5.2.4</desc>
<defs>
</defs>
<g transform="matrix(1 0 0 1 540 540)" id="8c0bb837-1f91-4bac-a897-79e9adaf158a"  >
<rect style="stroke: none; stroke-width: 1; stroke-dasharray: none; stroke-linecap: butt; stroke-dashoffset: 0; stroke-linejoin: miter; stroke-miterlimit: 4; fill: rgb(255,255,255); fill-rule: nonzero; opacity: 1; visibility: hidden;" vector-effect="non-scaling-stroke"  x="-540" y="-540" rx="0" ry="0" width="1080" height="1080" />
</g>
<g transform="matrix(1 0 0 1 540 540)" id="28f616a7-c77a-49b6-a149-8b68136c812a"  >
</g>
<g transform="matrix(1 0 0 1 540 540)"  >
<g style="" vector-effect="non-scaling-stroke"   >
		<g transform="matrix(17.68 -17.68 17.68 17.68 12.61 0)"  >
<path style="stroke: rgb(0,0,0); stroke-width: 0; stroke-dasharray: none; stroke-linecap: butt; stroke-dashoffset: 0; stroke-linejoin: miter; stroke-miterlimit: 4; fill: rgb(248,229,135); fill-rule: nonzero; opacity: 1;" vector-effect="non-scaling-stroke"  transform=" translate(-17.31, -18.08)" d="M 16 31.069655410117573 C 18.533015219874557 30.453795824742368 19.47360526550602 27.228356993082922 21.76390260292424 25.983372158143286 C 24.14582764150078 24.688579336904773 28.21040518259733 26.176067607439077 29.443752059344703 23.761753870381252 C 30.705568920362154 21.291709279811762 27.84950535589268 18.592654486674064 26.86388637125492 16 C 26.206250378968846 14.270099366414415 25.78122698741199 12.460600179806047 24.604502644583448 11.032188081906902 C 23.530723928238615 9.728740491788455 21.951108920285385 9.069582399879984 20.476516684724228 8.246445661127854 C 19.022627601869832 7.434865693929216 17.594617138559336 6.708261654651046 16 6.229041778379017 C 13.897002470176263 5.597041662694186 11.740696900431612 4.338553683286709 9.643954655362503 4.991006527876213 C 7.514461657668087 5.653650573488674 5.632524546263155 7.511408878123369 5.003168053804124 9.650976115630726 C 4.380946794218464 11.766286337168959 5.906282494079967 13.852365523507231 6.405644872122341 15.999999999999998 C 6.789082011957686 17.649068606863064 7.3598597024605406 19.171103497401248 7.606238522725521 20.846140448417923 C 8.022289563253302 23.67471502168463 6.539469946488911 27.034175233188193 8.35366317050324 29.2438438804735 C 10.045288024210663 31.304225516082763 13.40961236210298 31.699464123511458 16 31.069655410117573" stroke-linecap="round" />
</g>
		<g transform="matrix(0.85 -0.85 0.85 0.85 -47.22 -13.57)"  >
<path style="stroke: rgb(0,0,0); stroke-width: 0.00512; stroke-dasharray: none; stroke-linecap: butt; stroke-dashoffset: 0; stroke-linejoin: miter; stroke-miterlimit: 4; fill: rgb(0,0,0); fill-rule: nonzero; opacity: 1;" vector-effect="non-scaling-stroke"  transform=" translate(-256, -256)" d="M 437.523 337.779 C 437.523 350.042 442.509 361.166 450.55800000000005 369.215 C 458.607 377.26399999999995 469.73100000000005 382.25 481.982 382.25 C 488.757 382.25 494.233 376.762 494.233 369.999 C 494.233 363.22400000000005 488.757 357.74800000000005 481.982 357.74800000000005 C 470.98100000000005 357.74800000000005 462.02500000000003 348.79300000000006 462.02500000000003 337.77900000000005 C 462.02500000000003 318.72900000000004 455.03000000000003 301.2830000000001 443.48900000000003 287.86800000000005 C 431.93600000000004 274.44100000000003 415.826 265.04400000000004 397.59700000000004 262.10400000000004 L 397.59700000000004 209.89000000000004 C 434.06800000000004 204.01000000000005 462.02500000000003 172.31600000000003 462.02500000000003 134.20300000000003 C 462.02500000000003 123.18900000000004 470.98100000000005 114.23400000000004 481.982 114.23400000000004 C 488.757 114.23400000000004 494.233 108.75800000000004 494.233 101.98300000000003 C 494.233 95.22000000000003 488.757 89.73200000000003 481.982 89.73200000000003 C 457.468 89.73200000000003 437.523 109.68900000000002 437.523 134.20300000000003 C 437.523 162.96800000000002 414.11100000000005 186.38000000000002 385.346 186.38000000000002 L 379.478 186.38000000000002 C 375.839 149.49200000000002 355.981 117.29700000000003 327.154 97.04600000000002 L 327.154 83.179 C 327.154 70.462 322.205 58.493 313.2 49.501000000000005 L 313.114 49.415000000000006 C 326.835 42.995000000000005 337.702 31.161000000000005 342.676 16.092000000000006 C 344.795 9.660000000000005 341.304 2.7380000000000067 334.872 0.6190000000000051 C 328.45300000000003 -1.4999999999999951 321.51800000000003 1.9910000000000052 319.399 8.411000000000005 C 315.577 20.049000000000007 305.494 28.258000000000006 293.598 29.887000000000004 L 289.69 25.979000000000003 C 271.117 7.407000000000004 240.882 7.407000000000004 222.31 25.979000000000003 L 218.40200000000002 29.887000000000004 C 206.50600000000003 28.258000000000003 196.424 20.049000000000007 192.60100000000003 8.411000000000005 C 190.48200000000003 1.9920000000000053 183.54800000000003 -1.4999999999999947 177.12800000000001 0.6190000000000051 C 170.69600000000003 2.7380000000000053 167.205 9.660000000000005 169.324 16.092000000000006 C 174.298 31.173000000000005 185.17700000000002 42.995000000000005 198.88600000000002 49.40200000000001 L 198.8 49.50000000000001 C 189.79600000000002 58.492000000000004 184.846 70.46100000000001 184.846 83.178 L 184.846 97.04599999999999 C 156.019 117.297 136.161 149.492 132.534 186.38 L 126.654 186.38 C 97.889 186.38 74.477 162.968 74.477 134.203 C 74.477 109.68900000000001 54.532000000000004 89.732 30.018 89.732 C 23.243000000000002 89.732 17.767000000000003 95.22 17.767000000000003 101.983 C 17.767000000000003 108.75800000000001 23.243000000000002 114.23400000000001 30.018 114.23400000000001 C 41.019 114.23400000000001 49.975 123.18900000000001 49.975 134.203 C 49.975 172.316 77.932 204.00900000000001 114.40299999999999 209.89 L 114.40299999999999 253.601 C 77.93199999999999 259.481 49.974999999999994 291.175 49.974999999999994 329.275 C 49.974999999999994 334.77599999999995 47.733 339.774 44.11899999999999 343.388 C 40.504999999999995 347.00199999999995 35.51899999999999 349.24399999999997 30.017999999999994 349.24399999999997 C 23.242999999999995 349.24399999999997 17.766999999999996 354.73199999999997 17.766999999999996 361.49499999999995 C 17.766999999999996 368.2579999999999 23.242999999999995 373.7459999999999 30.017999999999994 373.7459999999999 C 54.532 373.7459999999999 74.477 353.80099999999993 74.477 329.2749999999999 C 74.477 317.01199999999994 78.74000000000001 305.7159999999999 85.858 296.7849999999999 C 92.988 287.86599999999993 102.96000000000001 281.3239999999999 114.403 278.5559999999999 L 114.403 366.6529999999999 C 77.93200000000002 372.5329999999999 49.97500000000001 404.2269999999999 49.97500000000001 442.3269999999999 C 49.97500000000001 447.82799999999986 47.73300000000001 452.8259999999999 44.11900000000001 456.4399999999999 C 40.50500000000001 460.05399999999986 35.519000000000005 462.2959999999999 30.018000000000008 462.2959999999999 C 23.24300000000001 462.2959999999999 17.76700000000001 467.7839999999999 17.76700000000001 474.54699999999985 C 17.76700000000001 481.30999999999983 23.244 486.8 30.019 486.8 C 54.533 486.8 74.47800000000001 466.855 74.47800000000001 442.329 C 74.47800000000001 430.05400000000003 78.74100000000001 418.746 85.87100000000001 409.827 C 93.001 400.908 102.986 394.366 114.42800000000001 391.61 C 115.653 458.206 170.194 512 237.072 512 L 274.927 512 C 341.805 512 396.346 458.218 397.571 391.61 C 420.456 397.123 437.521 417.778 437.521 442.329 C 437.521 454.592 442.507 465.716 450.55600000000004 473.765 C 458.605 481.81399999999996 469.72900000000004 486.8 481.98 486.8 C 488.755 486.8 494.231 481.312 494.231 474.54900000000004 C 494.231 467.78600000000006 488.755 462.29800000000006 481.98 462.29800000000006 C 470.97900000000004 462.29800000000006 462.023 453.3430000000001 462.023 442.32900000000006 C 462.023 423.27900000000005 455.028 405.8330000000001 443.487 392.4190000000001 C 431.934 378.9920000000001 415.824 369.5950000000001 397.595 366.6550000000001 L 397.595 287.0730000000001 C 420.469 292.585 437.523 313.228 437.523 337.779 z M 209.348 83.179 C 209.348 77.005 211.74900000000002 71.19800000000001 216.12300000000002 66.824 L 239.633 43.302 C 248.662 34.285 263.339 34.285 272.368 43.302 L 295.878 66.824 C 300.252 71.198 302.65299999999996 77.005 302.65299999999996 83.179 L 302.65299999999996 83.669 C 288.246 77.801 272.491 74.554 256.001 74.554 C 239.51099999999997 74.554 223.75599999999997 77.801 209.349 83.669 L 209.349 83.179 z M 256 99.056 C 306.756 99.056 348.74 137.242 354.79200000000003 186.381 L 304.122 186.381 C 284.49600000000004 186.381 267.038 195.802 256 210.344 C 244.962 195.802 227.504 186.381 207.878 186.381 L 157.19599999999997 186.381 C 163.236 137.243 205.244 99.056 256 99.056 z M 373.095 389.331 C 373.095 443.468 329.053 487.49800000000005 274.928 487.49800000000005 L 237.073 487.49800000000005 C 182.948 487.49800000000005 138.906 443.4680000000001 138.906 389.331 L 138.906 210.883 L 207.87900000000002 210.883 C 227.65200000000002 210.883 243.75000000000003 226.969 243.75000000000003 246.75400000000002 L 243.75000000000003 435.235 C 243.75000000000003 441.998 249.23800000000003 447.486 256.00100000000003 447.486 C 262.764 447.486 268.252 441.998 268.252 435.235 L 268.252 246.754 C 268.252 226.969 284.35 210.88299999999998 304.123 210.88299999999998 L 373.096 210.88299999999998 L 373.096 389.331 z" stroke-linecap="round" />
</g>
</g>
</g>
<g transform="matrix(1.33 1.33 -0.71 0.71 609.91 876.94)" id="937c2072-4479-448e-9f30-8a974816e2f6"  >
<path style="stroke: rgb(0,0,0); stroke-width: 0; stroke-dasharray: none; stroke-linecap: butt; stroke-dashoffset: 0; stroke-linejoin: miter; stroke-miterlimit: 4; fill: rgb(0,0,0); fill-rule: nonzero; opacity: 1;" vector-effect="non-scaling-stroke"  transform=" translate(-50, -50)" d="M 94.75 50 C 94.75 56.213 89.514 61.25 83.054 61.25 L 16.946 61.25 C 10.486 61.25 5.25 56.213 5.25 50 L 5.25 50 C 5.25 43.787 10.486 38.75 16.945999999999998 38.75 L 83.053 38.75 C 89.514 38.75 94.75 43.787 94.75 50 L 94.75 50 z" stroke-linecap="round" />
</g>
<g transform="matrix(2.02 2.02 -0.71 0.71 677.66 807.61)"  >
<path style="stroke: rgb(0,0,0); stroke-width: 0; stroke-dasharray: none; stroke-linecap: butt; stroke-dashoffset: 0; stroke-linejoin: miter; stroke-miterlimit: 4; fill: rgb(0,0,0); fill-rule: nonzero; opacity: 1;" vector-effect="non-scaling-stroke"  transform=" translate(-50, -50)" d="M 94.75 50 C 94.75 56.213 89.514 61.25 83.054 61.25 L 16.946 61.25 C 10.486 61.25 5.25 56.213 5.25 50 L 5.25 50 C 5.25 43.787 10.486 38.75 16.945999999999998 38.75 L 83.053 38.75 C 89.514 38.75 94.75 43.787 94.75 50 L 94.75 50 z" stroke-linecap="round" />
</g>
<g transform="matrix(2.92 2.92 -0.71 0.71 799.46 749.86)"  >
<path style="stroke: rgb(0,0,0); stroke-width: 0; stroke-dasharray: none; stroke-linecap: butt; stroke-dashoffset: 0; stroke-linejoin: miter; stroke-miterlimit: 4; fill: rgb(0,0,0); fill-rule: nonzero; opacity: 1;" vector-effect="non-scaling-stroke"  transform=" translate(-50, -50)" d="M 94.75 50 C 94.75 56.213 89.514 61.25 83.054 61.25 L 16.946 61.25 C 10.486 61.25 5.25 56.213 5.25 50 L 5.25 50 C 5.25 43.787 10.486 38.75 16.945999999999998 38.75 L 83.053 38.75 C 89.514 38.75 94.75 43.787 94.75 50 L 94.75 50 z" stroke-linecap="round" />
</g>
<g transform="matrix(1.17 1.17 -0.71 0.71 841.15 627.43)"  >
<path style="stroke: rgb(0,0,0); stroke-width: 0; stroke-dasharray: none; stroke-linecap: butt; stroke-dashoffset: 0; stroke-linejoin: miter; stroke-miterlimit: 4; fill: rgb(0,0,0); fill-rule: nonzero; opacity: 1;" vector-effect="non-scaling-stroke"  transform=" translate(-50, -50)" d="M 94.75 50 C 94.75 56.213 89.514 61.25 83.054 61.25 L 16.946 61.25 C 10.486 61.25 5.25 56.213 5.25 50 L 5.25 50 C 5.25 43.787 10.486 38.75 16.945999999999998 38.75 L 83.053 38.75 C 89.514 38.75 94.75 43.787 94.75 50 L 94.75 50 z" stroke-linecap="round" />
</g>
</svg>